#!OML:ASF F:\VICON\USERDATA\INSTALL\SteveWalk\SteveWalk.ASF
:FULLY-SPECIFIED
:DEGREES
76
root -0.0318268 16.1661 -28.1727 16.1672 11.6432 1.36398
lowerback -13.1018 -4.22564 -6.26064
upperback -3.89551 -4.78469 0.513242
thorax 3.7635 -2.3876 3.26723
lowerneck -2.80507 -2.60901 -0.378094
upperneck 9.10466 -3.80704 3.64966
head 3.52516 -1.75798 1.11299
rclavicle -4.65405e-014 2.14687e-014
rhumerus -83.8248 -36.0962 -19.6441
rradius 11.1057
rwrist 50.5776
rhand -10.5445 -32.6042
rfingers 7.12502
rthumb 15.4593 -62.006
lclavicle -4.65405e-014 2.14687e-014
lhumerus -19.9417 -10.9565 83.4391
lradius 46.6036
lwrist 7.10503
lhand -21.7665 -20.1393
lfingers 7.12502
lthumb 4.63419 9.79003
rfemur -49.5092 -13.0658 28.1747
rtibia 16.8987
rfoot -12.8852 4.51155
rtoes -20.2326
lfemur -1.59251 2.69658 -20.9068
ltibia 17.5947
lfoot -24.2482 -14.2182
ltoes -14.0224
77
root -0.0342843 16.1345 -27.9389 16.1242 12.1681 1.54596
lowerback -12.9951 -4.34987 -6.44343
upperback -3.82709 -4.93389 0.574589
thorax 3.81327 -2.46519 3.4103
lowerneck -2.60811 -2.69271 -0.329746
upperneck 8.5914 -3.89046 3.51671
head 3.30604 -1.8116 1.05949
rclavicle 5.65294e-015 -2.0276e-014
rhumerus -83.995 -35.6528 -19.7816
rradius 11.2064
rwrist 49.8706
rhand -10.7327 -32.0981
rfingers 7.12502
rthumb 15.278 -61.5138
lclavicle 5.65294e-015 -2.0276e-014
lhumerus -19.6675 -11.1433 83.4631
lradius 47.6918
lwrist 7.14546
lhand -22.4711 -19.9766
lfingers 7.12502
lthumb 3.9539 9.9665
rfemur -49.4824 -13.6335 28.5351
rtibia 15.8487
rfoot -12.8191 5.36583
rtoes -19.0442
lfemur -0.394285 2.32938 -20.6901
ltibia 17.1217
lfoot -24.0441 -14.2556
ltoes -15.7732
78
root -0.0280876 16.0912 -27.7089 16.1449 12.4966 1.59715
lowerback -13.2436 -4.37197 -6.41112
upperback -3.70252 -4.94629 0.60817
thorax 4.08193 -2.48028 3.40396
lowerneck -2.16712 -2.78105 -0.186405
upperneck 7.91474 -3.98193 3.43314
head 2.98649 -1.869 1.00969
rclavicle -6.1499e-015 7.55382e-015
rhumerus -84.2815 -35.3906 -19.8569
rradius 11.3513
rwrist 49.0947
rhand -10.9635 -31.8333
rfingers 7.12502
rthumb 15.0557 -61.2658
lclavicle -6.1499e-015 7.55382e-015
lhumerus -19.3566 -11.3115 83.4791
lradius 48.5605
lwrist 6.92976
lhand -22.7469 -20.2141
lfingers 7.12502
lthumb 3.68753 9.73379
rfemur -49.7911 -14.1223 29.1087
rtibia 15.4174
rfoot -13.0281 6.0879
rtoes -20.5378
lfemur 0.706025 1.88436 -20.4665
ltibia 16.6155
lfoot -23.4462 -14.3374
ltoes -15.587
79
root -0.0205737 16.0479 -27.4719 16.2322 12.6873 1.49308
lowerback -12.9248 -4.4087 -6.06352
upperback -3.85155 -5.07455 0.747389
thorax 3.74992 -2.53188 3.36015
lowerneck -2.65105 -2.73079 -0.291984
upperneck 8.07219 -3.90648 3.27825
head 3.12794 -1.83307 0.974229
rclavicle 2.83889e-014 1.98785e-015
rhumerus -85.1833 -35.196 -18.0806
rradius 11.1821
rwrist 50.1565
rhand -11.0095 -31.9129
rfingers 7.12502
rthumb 15.0113 -61.3487
lclavicle 2.83889e-014 1.98785e-015
lhumerus -19.5431 -11.0835 83.5024
lradius 49.5739
lwrist 6.74206
lhand -22.8727 -20.6152
lfingers 7.12502
lthumb 3.56604 9.3347
rfemur -50.1135 -13.8987 29.3396
rtibia 15.4772
rfoot -13.3498 6.06711
rtoes -24.987
lfemur 1.65503 1.51029 -20.1306
ltibia 16.2065
lfoot -22.7304 -14.3897
ltoes -14.7952
80
root -0.00815218 16.0164 -27.2269 16.3031 12.9293 1.2759
lowerback -12.9991 -4.40672 -5.55229
upperback -3.94421 -5.13995 0.868717
thorax 3.66891 -2.55874 3.18988
lowerneck -2.63852 -2.73916 -0.345775
upperneck 8.11837 -3.90345 3.12268
head 3.13821 -1.83819 0.933076
rclavicle -4.2161e-014 -2.44505e-014
rhumerus -86.5304 -35.1147 -15.668
rradius 11.0287
rwrist 51.7911
rhand -10.8263 -32.7362
rfingers 7.12502
rthumb 15.1878 -62.1588
lclavicle -4.2161e-014 -2.44505e-014
lhumerus -19.6475 -11.0752 83.5627
lradius 50.3565
lwrist 6.94984
lhand -23.2743 -20.9004
lfingers 7.12502
lthumb 3.17816 9.05569
rfemur -49.7811 -13.2389 29.0757
rtibia 15.7566
rfoot -13.5353 6.23684
rtoes -23.6635
lfemur 2.45029 1.29458 -19.6767
ltibia 16.1973
lfoot -22.9877 -13.212
ltoes -21.0936
81
root 0.0110702 15.982 -26.9724 16.4082 13.1513 0.8528
lowerback -13.3436 -4.38144 -4.78716
upperback -3.9778 -5.19436 1.05
thorax 3.77907 -2.58421 2.92202
lowerneck -2.84466 -2.76338 -0.279866
upperneck 8.25995 -3.92006 2.81341
head 3.21574 -1.85191 0.817341
rclavicle 3.04451e-014 -5.96354e-016
rhumerus -86.4061 -34.8712 -15.8369
rradius 11.0562
rwrist 51.4432
rhand -10.8104 -32.8931
rfingers 7.12502
rthumb 15.2031 -62.3145
lclavicle 3.04451e-014 -5.96354e-016
lhumerus -19.7243 -10.8249 83.6047
lradius 51.0358
lwrist 7.0196
lhand -23.6763 -21.3325
lfingers 7.12502
lthumb 2.79 8.62898
rfemur -49.9111 -12.9452 29.4669
rtibia 16.6522
rfoot -13.8751 6.22933
rtoes -23.7259
lfemur 3.18759 0.925246 -19.0482
ltibia 16.2683
lfoot -22.9605 -12.1114
ltoes -27.5631
82
root 0.0118208 15.9509 -26.7403 16.3797 12.7848 0.858638
lowerback -13.1181 -4.29353 -4.81254
upperback -3.96685 -5.09592 1.22318
thorax 3.67748 -2.53522 3.14963
lowerneck -3.22734 -2.65398 -0.154058
upperneck 8.27544 -3.7404 2.29195
head 3.27357 -1.77475 0.627674
rclavicle -3.32654e-014 7.15625e-015
rhumerus -87.7437 -35.1698 -12.8861
rradius 10.8944
rwrist 53.7032
rhand -11.0186 -32.1009
rfingers 7.12502
rthumb 15.0025 -61.5375
lclavicle -3.32654e-014 7.15625e-015
lhumerus -19.8699 -10.2674 83.707
lradius 51.7358
lwrist 6.76518
lhand -23.7691 -21.2702
lfingers 7.12502
lthumb 2.70033 8.6925
rfemur -49.9904 -11.4369 28.6784
rtibia 18.2477
rfoot -13.6142 4.43407
rtoes -29.3611
lfemur 4.05246 0.216371 -18.9927
ltibia 16.339
lfoot -20.9204 -13.4129
ltoes -24.3368
83
root 0.0382888 15.9339 -26.4741 16.4653 12.9944 1.00068
lowerback -13.7368 -4.37531 -4.67046
upperback -3.75152 -5.19517 1.37381
thorax 4.25165 -2.5972 3.16019
lowerneck -3.36618 -2.59153 -0.258442
upperneck 7.94214 -3.62189 2.03768
head 3.17945 -1.73053 0.56736
rclavicle -7.14476e-014 -4.12478e-015
rhumerus -90.7547 -35.8178 -6.88675
rradius 10.6429
rwrist 58.2496
rhand -11.1461 -31.6818
rfingers 7.12502
rthumb 14.8798 -61.1274
lclavicle -7.14476e-014 -4.12478e-015
lhumerus -19.9837 -9.64418 83.9526
lradius 52.3216
lwrist 6.44846
lhand -23.6767 -20.3129
lfingers 7.12502
lthumb 2.7896 9.64862
rfemur -50.296 -11.75 28.7827
rtibia 20.0477
rfoot -12.3755 4.12321
rtoes -34.4554
lfemur 4.72076 -0.474628 -18.9477
ltibia 16.7241
lfoot -19.1601 -14.6699
ltoes -21.6801
84
root 0.047669 15.9181 -26.2217 16.5916 12.8607 0.873494
lowerback -13.2511 -4.25394 -4.18453
upperback -4.33349 -5.13039 1.45202
thorax 3.33618 -2.53802 3.03914
lowerneck -2.94408 -2.61308 -0.3682
upperneck 8.04726 -3.63275 1.8863
head 3.13426 -1.74667 0.541903
rclavicle -6.34368e-014 -2.0686e-015
rhumerus -91.8827 -35.1199 -4.75482
rradius 10.5829
rwrist 59.7387
rhand -11.5413 -30.8138
rfingers 7.12502
rthumb 14.499 -60.2872
lclavicle -6.34368e-014 -2.0686e-015
lhumerus -21.3228 -9.09155 84.1339
lradius 53.1234
lwrist 6.46859
lhand -23.2544 -19.7588
lfingers 7.12502
lthumb 3.1974 10.197
rfemur -50.4927 -10.8541 28.4695
rtibia 21.9014
rfoot -9.53206 3.74444
rtoes -35.7966
lfemur 4.8744 -0.810036 -18.7172
ltibia 17.7519
lfoot -18.3625 -14.4503
ltoes -25.4999
85
root 0.0538509 15.9073 -25.9794 17.0962 12.224 0.668775
lowerback -14.1104 -4.03779 -3.82402
upperback -4.23834 -4.8617 1.5898
thorax 3.86106 -2.41246 2.97237
lowerneck -3.37919 -2.54545 -0.360411
upperneck 7.82808 -3.51966 1.64173
head 3.13401 -1.69806 0.46105
rclavicle -5.84334e-014 -3.10104e-014
rhumerus -93.3607 -35.6881 -1.74764
rradius 10.4455
rwrist 62.177
rhand -11.832 -30.7338
rfingers 7.12502
rthumb 14.2188 -60.2271
lclavicle -5.84334e-014 -3.10104e-014
lhumerus -21.4467 -8.39863 84.1438
lradius 53.8216
lwrist 6.49767
lhand -22.9067 -20.0995
lfingers 7.12502
lthumb 3.53323 9.85098
rfemur -51.3396 -9.29131 27.9336
rtibia 24.2067
rfoot -6.85717 4.28926
rtoes -31.5011
lfemur 4.63835 -0.930819 -18.5737
ltibia 18.661
lfoot -17.063 -14.2828
ltoes -29.0092
86
root 0.0709178 15.8859 -25.7543 18.3183 11.0998 0.588395
lowerback -15.1437 -3.67272 -3.47973
upperback -4.52365 -4.39576 1.71456
thorax 4.06233 -2.17697 2.95098
lowerneck -4.08485 -2.49251 -0.290864
upperneck 8.04785 -3.42371 1.22165
head 3.33213 -1.65914 0.30599
rclavicle 4.37916e-014 -1.2921e-014
rhumerus -94.4184 -36.0069 0.627806
rradius 10.4039
rwrist 64.0736
rhand -11.9071 -31.0694
rfingers 7.12502
rthumb 14.1465 -60.5678
lclavicle 4.37916e-014 -1.2921e-014
lhumerus -21.9381 -7.90133 84.3811
lradius 54.3948
lwrist 6.21633
lhand -23.6619 -21.0145
lfingers 7.12502
lthumb 2.80392 8.94682
rfemur -52.9975 -7.6716 27.4035
rtibia 26.0359
rfoot -4.836 5.22169
rtoes -26.0041
lfemur 2.85465 -0.946969 -18.8497
ltibia 21.0786
lfoot -15.4599 -14.4054
ltoes -28.7639
87
root 0.0606099 15.8986 -25.4638 17.1267 12.4092 0.403274
lowerback -14.1491 -4.09735 -3.34784
upperback -4.21756 -5.02647 2.01813
thorax 3.91771 -2.49434 3.12122
lowerneck -4.29279 -2.39004 -0.230754
upperneck 8.13457 -3.26697 0.923388
head 3.39314 -1.58996 0.201832
rclavicle 1.09456e-014 -8.15017e-015
rhumerus -94.4999 -36.2676 1.20536
rradius 10.4751
rwrist 64.6287
rhand -11.987 -30.8419
rfingers 7.12502
rthumb 14.0696 -60.3457
lclavicle 1.09456e-014 -8.15017e-015
lhumerus -22.7815 -7.20765 84.6057
lradius 54.8198
lwrist 5.969
lhand -24.4429 -21.8158
lfingers 7.12502
lthumb 2.04962 8.15415
rfemur -51.4475 -6.87143 26.172
rtibia 28.0355
rfoot -4.52397 3.05227
rtoes -24.2804
lfemur 3.39778 -2.10808 -17.7876
ltibia 23.8008
lfoot -13.1965 -16.4727
ltoes -25.7488
88
root 0.0974089 15.8724 -25.2785 18.6901 10.0954 -0.790309
lowerback -15.0146 -3.10264 -1.58253
upperback -4.97293 -3.94872 2.26072
thorax 3.40106 -1.94112 2.56351
lowerneck -4.47216 -2.20292 -0.21192
upperneck 8.27338 -2.98989 0.584207
head 3.46722 -1.46448 0.0967717
rclavicle -9.87711e-016 2.98177e-015
rhumerus -95.0653 -36.5192 2.76959
rradius 10.4531
rwrist 66.0872
rhand -12.1105 -31.1335
rfingers 7.12502
rthumb 13.9506 -60.6455
lclavicle -9.87711e-016 2.98177e-015
lhumerus -23.834 -6.16875 84.8318
lradius 55.2014
lwrist 5.76495
lhand -24.6141 -21.983
lfingers 7.12502
lthumb 1.88431 7.98844
rfemur -53.8504 -4.48171 26.9229
rtibia 29.9451
rfoot -3.76821 3.76312
rtoes -22.2997
lfemur 0.40646 -0.735692 -17.4592
ltibia 27.0543
lfoot -8.54234 -16.9728
ltoes -18.7925
